<mxfile host="app.diagrams.net" agent="Mozilla/5.0 (Windows NT 10.0; Win64; x64; rv:135.0) Gecko/20100101 Firefox/135.0" version="26.0.7">
  <diagram name="第 1 页" id="dxvrjl87SDcU2a7-i233">
    <mxGraphModel dx="1866" dy="2007" grid="1" gridSize="10" guides="1" tooltips="1" connect="1" arrows="1" fold="1" page="1" pageScale="1" pageWidth="827" pageHeight="1169" math="0" shadow="0">
      <root>
        <mxCell id="0" />
        <mxCell id="1" parent="0" />
        <mxCell id="3dfxl_YuZ5u5SvN4yfyj-3" style="edgeStyle=orthogonalEdgeStyle;rounded=0;orthogonalLoop=1;jettySize=auto;html=1;entryX=0;entryY=0.5;entryDx=0;entryDy=0;" edge="1" parent="1" source="3dfxl_YuZ5u5SvN4yfyj-1" target="3dfxl_YuZ5u5SvN4yfyj-2">
          <mxGeometry relative="1" as="geometry" />
        </mxCell>
        <mxCell id="3dfxl_YuZ5u5SvN4yfyj-1" value="" style="shape=image;html=1;verticalAlign=top;verticalLabelPosition=bottom;labelBackgroundColor=#ffffff;imageAspect=0;aspect=fixed;image=https://cdn0.iconfinder.com/data/icons/octicons/1024/file-binary-128.png" vertex="1" parent="1">
          <mxGeometry x="20" y="240" width="128" height="128" as="geometry" />
        </mxCell>
        <mxCell id="3dfxl_YuZ5u5SvN4yfyj-2" value="" style="rounded=1;whiteSpace=wrap;html=1;fillColor=none;" vertex="1" parent="1">
          <mxGeometry x="290" y="-1" width="220" height="610" as="geometry" />
        </mxCell>
        <mxCell id="3dfxl_YuZ5u5SvN4yfyj-5" value="" style="verticalLabelPosition=bottom;verticalAlign=top;html=1;shape=mxgraph.basic.diag_round_rect;dx=6;whiteSpace=wrap;" vertex="1" parent="1">
          <mxGeometry x="330" y="50" width="140" height="60" as="geometry" />
        </mxCell>
        <mxCell id="3dfxl_YuZ5u5SvN4yfyj-6" value="&lt;font style=&quot;font-size: 18px;&quot;&gt;&lt;b&gt;汇编码&lt;/b&gt;&lt;/font&gt;" style="text;strokeColor=none;align=center;fillColor=none;html=1;verticalAlign=middle;whiteSpace=wrap;rounded=0;" vertex="1" parent="1">
          <mxGeometry x="370" y="65" width="60" height="30" as="geometry" />
        </mxCell>
        <mxCell id="3dfxl_YuZ5u5SvN4yfyj-7" value="&lt;b&gt;&lt;font style=&quot;font-size: 18px;&quot;&gt;恶意文件&lt;/font&gt;&lt;/b&gt;" style="text;strokeColor=none;align=center;fillColor=none;html=1;verticalAlign=middle;whiteSpace=wrap;rounded=0;" vertex="1" parent="1">
          <mxGeometry x="46" y="360" width="76" height="30" as="geometry" />
        </mxCell>
        <mxCell id="3dfxl_YuZ5u5SvN4yfyj-12" value="&lt;font style=&quot;font-size: 18px;&quot;&gt;&lt;b&gt;静态信息提取&lt;/b&gt;&lt;/font&gt;" style="text;html=1;align=center;verticalAlign=middle;resizable=0;points=[];autosize=1;strokeColor=none;fillColor=none;" vertex="1" parent="1">
          <mxGeometry x="147" y="266" width="130" height="40" as="geometry" />
        </mxCell>
        <mxCell id="3dfxl_YuZ5u5SvN4yfyj-16" value="" style="verticalLabelPosition=bottom;verticalAlign=top;html=1;shape=mxgraph.basic.diag_round_rect;dx=6;whiteSpace=wrap;" vertex="1" parent="1">
          <mxGeometry x="330" y="164" width="140" height="60" as="geometry" />
        </mxCell>
        <mxCell id="3dfxl_YuZ5u5SvN4yfyj-17" value="&lt;font style=&quot;font-size: 18px;&quot;&gt;&lt;b&gt;注释信息&lt;/b&gt;&lt;/font&gt;" style="text;strokeColor=none;align=center;fillColor=none;html=1;verticalAlign=middle;whiteSpace=wrap;rounded=0;" vertex="1" parent="1">
          <mxGeometry x="355" y="180" width="90" height="30" as="geometry" />
        </mxCell>
        <mxCell id="3dfxl_YuZ5u5SvN4yfyj-18" value="" style="verticalLabelPosition=bottom;verticalAlign=top;html=1;shape=mxgraph.basic.diag_round_rect;dx=6;whiteSpace=wrap;" vertex="1" parent="1">
          <mxGeometry x="330" y="274" width="140" height="60" as="geometry" />
        </mxCell>
        <mxCell id="3dfxl_YuZ5u5SvN4yfyj-19" value="&lt;font style=&quot;font-size: 18px;&quot;&gt;&lt;b&gt;静态API信息&lt;/b&gt;&lt;/font&gt;" style="text;strokeColor=none;align=center;fillColor=none;html=1;verticalAlign=middle;whiteSpace=wrap;rounded=0;" vertex="1" parent="1">
          <mxGeometry x="347.5" y="290" width="105" height="30" as="geometry" />
        </mxCell>
        <mxCell id="3dfxl_YuZ5u5SvN4yfyj-20" value="" style="verticalLabelPosition=bottom;verticalAlign=top;html=1;shape=mxgraph.basic.diag_round_rect;dx=6;whiteSpace=wrap;" vertex="1" parent="1">
          <mxGeometry x="330" y="384" width="140" height="60" as="geometry" />
        </mxCell>
        <mxCell id="3dfxl_YuZ5u5SvN4yfyj-21" value="&lt;font style=&quot;font-size: 18px;&quot;&gt;&lt;b&gt;语义结构信息&lt;/b&gt;&lt;/font&gt;" style="text;strokeColor=none;align=center;fillColor=none;html=1;verticalAlign=middle;whiteSpace=wrap;rounded=0;" vertex="1" parent="1">
          <mxGeometry x="343.75" y="399" width="112.5" height="30" as="geometry" />
        </mxCell>
        <mxCell id="3dfxl_YuZ5u5SvN4yfyj-22" value="" style="verticalLabelPosition=bottom;verticalAlign=top;html=1;shape=mxgraph.basic.diag_round_rect;dx=6;whiteSpace=wrap;" vertex="1" parent="1">
          <mxGeometry x="330" y="500" width="140" height="60" as="geometry" />
        </mxCell>
        <mxCell id="3dfxl_YuZ5u5SvN4yfyj-23" value="&lt;font style=&quot;font-size: 18px;&quot;&gt;&lt;b&gt;其他信息&lt;/b&gt;&lt;/font&gt;" style="text;strokeColor=none;align=center;fillColor=none;html=1;verticalAlign=middle;whiteSpace=wrap;rounded=0;" vertex="1" parent="1">
          <mxGeometry x="343.75" y="515" width="112.5" height="30" as="geometry" />
        </mxCell>
      </root>
    </mxGraphModel>
  </diagram>
</mxfile>
